<svg width="104" height="118" viewBox="0 0 104 118" fill="none" xmlns="http://www.w3.org/2000/svg">
<path d="M99.9998 0.923828C102.209 0.923828 104 2.71474 104 4.92383V97.9238C104 100.133 102.209 101.924 99.9998 101.924H83.1033L91.2996 99.2275C93.3979 98.5371 94.5387 96.2762 93.8484 94.1777L63.4333 1.72363C63.3395 1.43849 63.2156 1.17144 63.0681 0.923828H99.9998ZM42.0164 4.55762C42.2013 2.52024 43.9142 0.923947 45.9998 0.923828H53.0642L42.0164 4.55762Z" fill="#462751"/>
<path d="M98 0.92395C100.209 0.92395 102 2.71481 102 4.92395V96.924C102 99.1331 100.209 100.924 98 100.924H86.1426L91.2988 99.2277C93.3973 98.5373 94.5389 96.2763 93.8486 94.1779L63.4326 1.72375C63.3388 1.43852 63.2149 1.17163 63.0674 0.92395H98ZM40 5.2218V4.92395C40 2.71481 41.7909 0.92395 44 0.92395H53.0645L40 5.2218Z" fill="#555491"/>
<rect y="20.035" width="64.1109" height="102.151" rx="4" transform="rotate(-18.2103 0 20.035)" fill="#462751"/>
<rect x="0.013916" y="20.0023" width="62" height="100" rx="4" transform="rotate(-18.2103 0.013916 20.0023)" fill="#555491"/>
</svg>
